HIERARCHY
ROOT Hips
{
	OFFSET -14.64140 90.27770 -84.91600
	CHANNELS 6 Xposition Yposition Zposition Zrotation Xrotation Yrotation
	JOINT Spine
	{
		OFFSET 0.00000 13.20850 -1.60436
		CHANNELS 3 Zrotation Xrotation Yrotation
		JOINT Spine1
		{
			OFFSET 0.00000 8.61716 0.00000
			CHANNELS 3 Zrotation Xrotation Yrotation
			JOINT Spine2
			{
				OFFSET 0.00000 8.61717 0.00000
				CHANNELS 3 Zrotation Xrotation Yrotation
				JOINT Spine3
				{
					OFFSET 0.00000 8.61717 0.00000
					CHANNELS 3 Zrotation Xrotation Yrotation
					JOINT Neck
					{
						OFFSET 0.00000 11.07920 1.10792
						CHANNELS 3 Zrotation Xrotation Yrotation
						JOINT Neck1
						{
							OFFSET 0.00000 7.08032 0.00000
							CHANNELS 3 Zrotation Xrotation Yrotation
							JOINT Head
							{
								OFFSET 0.00000 7.08031 0.00000
								CHANNELS 3 Zrotation Xrotation Yrotation
								End site
								{
									OFFSET 0.00000 0.00000 0.00000
								}
							}
						}
					}
					JOINT RightShoulder
					{
						OFFSET -0.01000 7.91373 5.19711
						CHANNELS 3 Zrotation Xrotation Yrotation
						JOINT RightArm
						{
							OFFSET -18.41580 0.00000 0.00000
							CHANNELS 3 Zrotation Xrotation Yrotation
							JOINT RightForeArm
							{
								OFFSET -29.11090 0.00000 0.00000
								CHANNELS 3 Zrotation Xrotation Yrotation
								JOINT RightHand
								{
									OFFSET -24.65040 0.00000 0.00000
									CHANNELS 3 Zrotation Xrotation Yrotation
									JOINT RightHandThumb1
									{
										OFFSET -5.35114 -0.85590 3.97906
										CHANNELS 3 Zrotation Xrotation Yrotation
										JOINT RightHandThumb2
										{
											OFFSET -4.52789 0.00000 0.00000
											CHANNELS 3 Zrotation Xrotation Yrotation
											JOINT RightHandThumb3
											{
												OFFSET -2.46976 0.00000 0.00000
												CHANNELS 3 Zrotation Xrotation Yrotation
												End site
												{
													OFFSET 0.00000 0.00000 0.00000
												}
											}
										}
									}
									JOINT RightHandIndex1
									{
										OFFSET -14.26970 0.00000 2.88139
										CHANNELS 3 Zrotation Xrotation Yrotation
										JOINT RightHandIndex2
										{
											OFFSET -5.48836 0.00000 0.00000
											CHANNELS 3 Zrotation Xrotation Yrotation
											JOINT RightHandIndex3
											{
												OFFSET -3.01859 0.00000 0.00000
												CHANNELS 3 Zrotation Xrotation Yrotation
												End site
												{
													OFFSET 0.00000 0.00000 0.00000
												}
											}
										}
									}
									JOINT RightHandMiddle1
									{
										OFFSET -14.26970 0.00000 -0.09147
										CHANNELS 3 Zrotation Xrotation Yrotation
										JOINT RightHandMiddle2
										{
											OFFSET -6.17441 0.00000 0.00000
											CHANNELS 3 Zrotation Xrotation Yrotation
											JOINT RightHandMiddle3
											{
												OFFSET -3.56743 0.00000 0.00000
												CHANNELS 3 Zrotation Xrotation Yrotation
												End site
												{
													OFFSET 0.00000 0.00000 0.00000
												}
											}
										}
									}
									JOINT RightHandRing1
									{
										OFFSET -12.69180 0.00000 -3.06433
										CHANNELS 3 Zrotation Xrotation Yrotation
										JOINT RightHandRing2
										{
											OFFSET -5.62556 0.00000 0.00000
											CHANNELS 3 Zrotation Xrotation Yrotation
											JOINT RightHandRing3
											{
												OFFSET -3.56744 0.00000 0.00000
												CHANNELS 3 Zrotation Xrotation Yrotation
												End site
												{
													OFFSET 0.00000 0.00000 0.00000
												}
											}
										}
									}
									JOINT RightHandPinky1
									{
										OFFSET -11.11390 0.00000 -6.03719
										CHANNELS 3 Zrotation Xrotation Yrotation
										JOINT RightHandPinky2
										{
											OFFSET -4.52789 0.00000 0.00000
											CHANNELS 3 Zrotation Xrotation Yrotation
											JOINT RightHandPinky3
											{
												OFFSET -2.46976 0.00000 0.00000
												CHANNELS 3 Zrotation Xrotation Yrotation
												End site
												{
													OFFSET 0.00000 0.00000 0.00000
												}
											}
										}
									}
								}
							}
						}
					}
					JOINT LeftShoulder
					{
						OFFSET 0.01000 7.91373 5.19711
						CHANNELS 3 Zrotation Xrotation Yrotation
						JOINT LeftArm
						{
							OFFSET 18.41580 0.00000 0.00000
							CHANNELS 3 Zrotation Xrotation Yrotation
							JOINT LeftForeArm
							{
								OFFSET 29.11090 0.00000 0.00000
								CHANNELS 3 Zrotation Xrotation Yrotation
								JOINT LeftHand
								{
									OFFSET 24.65040 0.00000 0.00000
									CHANNELS 3 Zrotation Xrotation Yrotation
									JOINT LeftHandThumb1
									{
										OFFSET 5.35114 -0.85590 3.97906
										CHANNELS 3 Zrotation Xrotation Yrotation
										JOINT LeftHandThumb2
										{
											OFFSET 4.52789 0.00000 0.00000
											CHANNELS 3 Zrotation Xrotation Yrotation
											JOINT LeftHandThumb3
											{
												OFFSET 2.46977 0.00000 0.00000
												CHANNELS 3 Zrotation Xrotation Yrotation
												End site
												{
													OFFSET 0.00000 0.00000 0.00000
												}
											}
										}
									}
									JOINT LeftHandIndex1
									{
										OFFSET 14.26970 0.00000 2.88139
										CHANNELS 3 Zrotation Xrotation Yrotation
										JOINT LeftHandIndex2
										{
											OFFSET 5.48836 0.00000 0.00000
											CHANNELS 3 Zrotation Xrotation Yrotation
											JOINT LeftHandIndex3
											{
												OFFSET 3.01859 0.00000 0.00000
												CHANNELS 3 Zrotation Xrotation Yrotation
												End site
												{
													OFFSET 0.00000 0.00000 0.00000
												}
											}
										}
									}
									JOINT LeftHandMiddle1
									{
										OFFSET 14.26970 0.00000 -0.09147
										CHANNELS 3 Zrotation Xrotation Yrotation
										JOINT LeftHandMiddle2
										{
											OFFSET 6.17440 0.00000 0.00000
											CHANNELS 3 Zrotation Xrotation Yrotation
											JOINT LeftHandMiddle3
											{
												OFFSET 3.56744 0.00000 0.00000
												CHANNELS 3 Zrotation Xrotation Yrotation
												End site
												{
													OFFSET 0.00000 0.00000 0.00000
												}
											}
										}
									}
									JOINT LeftHandRing1
									{
										OFFSET 12.69180 0.00000 -3.06433
										CHANNELS 3 Zrotation Xrotation Yrotation
										JOINT LeftHandRing2
										{
											OFFSET 5.62556 0.00000 0.00000
											CHANNELS 3 Zrotation Xrotation Yrotation
											JOINT LeftHandRing3
											{
												OFFSET 3.56744 0.00000 0.00000
												CHANNELS 3 Zrotation Xrotation Yrotation
												End site
												{
													OFFSET 0.00000 0.00000 0.00000
												}
											}
										}
									}
									JOINT LeftHandPinky1
									{
										OFFSET 11.11390 0.00000 -6.03719
										CHANNELS 3 Zrotation Xrotation Yrotation
										JOINT LeftHandPinky2
										{
											OFFSET 4.52789 0.00000 0.00000
											CHANNELS 3 Zrotation Xrotation Yrotation
											JOINT LeftHandPinky3
											{
												OFFSET 2.46976 0.00000 0.00000
												CHANNELS 3 Zrotation Xrotation Yrotation
												End site
												{
													OFFSET 0.00000 0.00000 0.00000
												}
											}
										}
									}
								}
							}
						}
					}
					JOINT pCube4
					{
						OFFSET 0.00000 10.91090 1.10792
						CHANNELS 3 Zrotation Xrotation Yrotation
						End site
						{
							OFFSET 0.00000 0.00000 0.00000
						}
					}
				}
			}
		}
	}
	JOINT RightUpLeg
	{
		OFFSET -9.98441 0.00000 0.00000
		CHANNELS 3 Zrotation Xrotation Yrotation
		JOINT RightLeg
		{
			OFFSET 0.00000 -42.11790 0.00000
			CHANNELS 3 Zrotation Xrotation Yrotation
			JOINT RightFoot
			{
				OFFSET 0.00000 -45.00020 -0.00001
				CHANNELS 3 Zrotation Xrotation Yrotation
				JOINT RightForeFoot
				{
					OFFSET 0.00000 -3.74820 0.00000
					CHANNELS 3 Zrotation Xrotation Yrotation
					JOINT RightToeBase
					{
						OFFSET 0.00000 0.06325 14.43120
						CHANNELS 3 Zrotation Xrotation Yrotation
						End site
						{
							OFFSET 0.00000 0.00000 0.00000
						}
					}
				}
			}
		}
	}
	JOINT LeftUpLeg
	{
		OFFSET 9.98441 0.00000 0.00000
		CHANNELS 3 Zrotation Xrotation Yrotation
		JOINT LeftLeg
		{
			OFFSET 0.00000 -42.11800 0.00000
			CHANNELS 3 Zrotation Xrotation Yrotation
			JOINT LeftFoot
			{
				OFFSET 0.00000 -45.00070 0.00000
				CHANNELS 3 Zrotation Xrotation Yrotation
				JOINT LeftForeFoot
				{
					OFFSET 0.00000 -3.74824 0.00000
					CHANNELS 3 Zrotation Xrotation Yrotation
					JOINT LeftToeBase
					{
						OFFSET 0.00000 0.06325 14.43110
						CHANNELS 3 Zrotation Xrotation Yrotation
						End site
						{
							OFFSET 0.00000 0.00000 0.00000
						}
					}
				}
			}
		}
	}
}
MOTION
Frames: 4
Frame Time: 0.050000
-0.020499240919487 -0.00994543537021881 -0.03388124904218217 0.04331714941769575 -0.03043901750000403 -0.035471448331090887 -4.14590958896457 2.6618159110245476 -0.6826325451346206 -0.885893960623539 3.6173760907695236 0.4238587544680865 -1.1785831896997052 -1.3360305215973283 -0.8611183337160253 -0.2100564485970848 0.21277627815988898 -0.7913709483846434 -0.0027809233150535365 10.712108195236393 -0.692925622669945 -0.10463806339977418 -1.633817753025214 -4.231387263937786 0.27753079156352595 -17.36904498728356 -0.35243505678913595 -2.2533472160467127 1.272644346653597 -13.074589959242159 72.57007657978038 10.391671698319481 10.993166681694513 34.53881147007659 5.992315709452158 95.36653856383049 18.74809451750637 -0.27441751033935496 -3.640961322131202 4.512863490824135 -0.1296570940882824 -1.620648926753026 -0.028739966696915496 0.024170016612461546 -56.25912374106058 0.0026673039244560896 -0.023812981545305024 -56.208177898900956 -38.77662442494492 0.042856450613057054 0.037276701392701894 -0.023413416586947983 -0.045760892143511506 0.017442861217039227 0.024656472313596342 -0.022679417105412686 0.018580160058633843 -36.67565297440682 0.04182920485408563 -0.005270445553443242 -0.006811217121350957 0.010266900531114254 -0.041719262335596904 -0.0018305226408979428 -0.020818602599283562 0.038237677898609615 -19.74657724859415 -0.035984380863759415 0.019366684612634133 0.023254679699259418 -0.045969270285158466 -0.015389693574069089 0.049087002661291 -0.009733040022278391 -0.0057977832772358575 24.07979290742053 -0.008619790644976982 0.04325621008185954 28.832195113971476 0.010065824863014031 -0.0022604536244630966 28.86072673729802 0.011291537460947711 -0.03575820261880751 3.238677692994806 0.9946557191664481 11.704238627766035 -69.05106231948443 24.75244123221688 -9.384554433567715 -21.33863871274888 4.746053972609348 -75.61057291887988 -14.26839110532763 0.4924435277163837 1.388863959645652 -0.5167216335302096 0.08024261172148152 -8.121827858989374 -0.021394224280857303 0.02046966832439084 44.598753125431934 -0.009991428552920335 -0.021775909664618297 44.56952229531738 12.43096083945134 0.008902675039194969 0.032974444224349336 -0.020327026840703626 0.008261132511581214 0.03466675409721717 -0.046659896660734536 -0.009641387379674468 -0.006182598588966564 11.13428752581534 -0.014871930868118699 0.02113697576509698 0.01455776477997452 0.030109326214051647 -0.029543956504463485 -0.020643593015464676 0.00031623836673679294 0.003620059037627514 4.760971554871726 0.025769065849314203 0.037707215922853185 -0.029357925138258172 -0.03415781200791284 0.024799173044416506 -0.025028556741967124 0.019257540231896436 -0.03350710184564809 -5.63879333858764 -0.041282257191529385 0.00849827780362348 -6.686040163133487 0.030176394849735194 -0.022033486312662845 -6.755244631186329 -0.006455033319172349 0.040276668618041786 0.016370518308866922 -0.03437252325615187 -0.02206501084778783 8.029835817038148 3.4453819194589337 -19.2148686106361 -0.03677783474943914 10.415452320099039 0.01806008747842122 -5.571979292547308 -15.66940091079019 3.163862529503189 0.009487841746325061 0.018410704819870533 0.04647807186593101 -0.0042737380088255054 4.734219836965213 -0.03365762846876924 12.471247744300614 -8.266863847458056 6.880292466138736 0.012124015377916238 46.36915590168514 0.014320667890081053 -4.320574050999006 -14.73929668559082 -3.808760566760385 -0.007564533312245306 0.016024905703343043 -0.03608751440238764 0.04837624429059857 -10.782100312752608 -0.009967981431787046 
-0.01356394702322223 0.022698510561087903 0.0062060768908710215 -0.03339106331292799 0.04863810814602215 -0.011291756112508869 -4.140449896213982 2.678112240582559 -0.6356869405398788 -0.9096605943101619 3.5409485989407825 0.3630035042724201 -1.2314294872963334 -1.4327724384529286 -0.9677565072765855 -0.18211286230839888 0.20327863865140006 -0.8433202204727327 0.05676375808874852 10.612993444342129 -0.8406839883802061 -0.0878429384185046 -1.5898994072448245 -4.439170560757942 0.3103535639272135 -17.253304517050534 -0.3792371914953766 -2.0903586948876316 1.2495363080571988 -12.991827020287028 72.30126348044729 9.97727867755406 10.950947427431194 36.19575883251253 6.056885971882001 95.65212308067244 18.93321891247825 -0.32360921271092963 -3.924803370279821 4.552961299863124 -0.11425275342443827 -1.6380615491843429 0.022105571850499935 -0.008280877822406378 -56.213673891179496 -0.02819040904999289 0.023079016420010128 -56.22686405790533 -38.75216382239687 0.01195176234323154 0.033552095651558485 0.010117208828235956 -0.0012926549666062955 0.0485692881148568 -0.023855611050404412 -0.012915708400716017 0.02440600333107705 -36.685260826367966 -0.02211897597110008 -0.007340418592745802 0.003940697299449552 -0.03393845533383734 -0.02228223383035882 -0.04312426127135361 -0.02598400862595369 0.047944397528512185 -19.79262928613323 -0.030204038676083685 0.017860357109306176 -0.04329708653454171 0.007970248467591055 0.022315665662111735 -0.01308942689850804 -0.03486916788647428 0.01868749052904339 24.08685306668751 0.0012820742824594207 0.03986706851663512 28.86467300812282 -0.0074936348283992545 0.010840433868917507 28.826327487793353 -0.026525402525045757 -0.015678731873562224 3.001965401028497 0.9951507079128055 11.499998635848725 -69.20058496880391 24.90914069685352 -8.89206256528882 -20.842038229831257 4.250850451317809 -74.18475256538052 -13.98310713881614 0.35723363996445845 1.4801635238799233 -0.47326307093401365 0.05443254993328232 -8.136557256152267 -0.04859854605727308 0.03302239848589715 44.5885891367304 -0.025719160097246008 0.0409612497303521 44.550275126775034 12.412906621525922 -0.02721072174404088 0.013866497573905841 -0.02403383892004043 0.026084462767094897 0.04565691930136187 -0.025697619967794207 -0.0025104153335891795 -0.01779041378913624 11.086036376672672 -0.011632688062427812 -0.016439568755698117 -0.021092606468286576 0.03264776255690265 0.014103903665907143 -0.0037922581955633717 0.03188010767545506 -0.0022130873940125104 4.790882981912933 0.028840172969477787 -0.02544479699619866 -0.043236324438463584 -0.03876314922137548 0.0047634711675737405 -0.04388765707731621 -0.01573453737685009 0.02407873253905016 -5.556964973757162 0.049676679113374 0.01352939032102335 -6.69906959392131 -0.0059873801794341356 -0.033149402922678636 -6.734117694195778 0.034434077058360095 0.0019683998261087556 0.01557053319326257 0.04895999929382118 0.04396833680559532 8.002228718767748 3.4729909680657647 -19.25919851596173 -0.04842749600323742 10.385212065099207 0.04801985216515048 -5.600228085494257 -15.650251892810811 3.2250764341309286 0.007466100422912064 0.020760106114588176 -0.02464311394098889 0.009265934264016305 4.672433026555117 -0.004432487663530583 12.465255902169815 -8.249509564521322 6.854353511429821 -0.003165657490522631 46.41069150389104 0.016206078477558544 -4.352752516080736 -14.751003476816082 -3.8843020509241883 -0.013897272243372604 0.04441050725520074 0.016867542465449626 0.03303600513266552 -10.774901176215014 0.002502312631296675 
-0.04411937156209384 0.042157686385054724 0.0006922864424660658 -0.0013393633053161208 0.034535896408307586 0.04602921231221404 -4.234654175011351 2.505003140765625 -0.6935261334477287 -0.9230533677587529 3.5916122345949133 0.366107788793446 -1.1949341189869813 -1.420904778977281 -1.030761783134074 -0.13063712912958655 0.21588194886906392 -0.8322484381702291 0.01894800430804275 10.66401724649378 -0.8938024250994329 -0.0739861636915827 -1.3884118467241648 -4.57585609890056 0.2931811651778507 -17.07512450505622 -0.39504006070863334 -2.0385819867375132 1.2945777744520444 -12.921988914578494 72.23705158471685 9.581854952797652 10.90156895992851 37.73210717148768 6.082918362223521 95.95151086758261 19.00884877163578 -0.30567410281616153 -4.118751891869241 4.492095113298363 -0.13501153446269218 -1.6304178065368944 0.009750684888376264 -0.031076099425406067 -56.19243584729794 0.026109234637009406 -0.027224491734056534 -56.270644515503605 -38.778221833141274 0.010247728986921948 0.04154936041541348 0.031014608417927806 0.007439498943253176 0.01986133472173056 0.03750245707356809 -0.030154513398763114 -0.04697096582349436 -36.68132574262917 0.023351298238227042 -0.01891805103244757 -0.009249271502612188 0.009945272221190585 -0.04083910680047549 0.01465697955265701 -0.008519618004873813 -0.026204814249219388 -19.7250691895301 -0.045654017408568455 0.0370326896743784 -0.013281285114217228 0.03309451138580961 0.01009775984808013 -0.0012683466773095056 -0.019229298676357812 0.04296078518262752 24.04161719566012 0.04209135289811348 0.0027581376169885045 28.90969196421946 -0.014085651562423014 0.0376495481278878 28.867823942042453 0.004737097663083188 -0.03598917127028165 2.912929624880126 0.9762484676673638 11.3973632178093 -69.13726225503 25.20861765252247 -8.668382112515857 -20.724416819296806 4.210423256934886 -73.41803840217004 -13.741644209420283 0.28741363656690133 1.6872359399829333 -0.5188524292936613 0.09574857975677813 -8.1438078672254 0.023946878323130385 -0.037033114139069984 44.61276712415512 0.00801628845778294 -0.04134448627460272 44.61518140802609 12.476511561579466 -0.0029177263672907875 -0.01671494752232563 -0.0027939064731847974 -0.032236695395264754 -0.010995697645418976 -0.047045144857157925 0.012908968183787846 0.004028865758667598 11.117284844000537 4.6898476069914966e-05 -0.03600600275899086 0.040707657039427976 0.024350043571799856 -0.0016523991060242475 -0.006965289622481098 -0.04263641439554205 0.031911902772580526 4.7892046476462715 -0.025377516090008156 0.021087161126490103 0.03134631129286419 0.008814895913406546 0.038931514603160994 -0.014439616605613256 0.036397536310894034 -0.048374959610921184 -5.583501275415696 -0.025947025284137268 -0.0011460380173474462 -6.719539962023765 -0.001110870550749227 0.011644059543817446 -6.699152638775623 -0.011728968183474216 -0.005480607910664769 0.015427410441534792 -0.005771878604221168 0.01243267655768646 8.085099125842383 3.523883714392362 -19.213393246374693 -0.04053377377961068 10.366525821320364 0.005210287765233532 -5.626252919918214 -15.667447301136864 3.1952553059224154 -0.0023850708933035552 0.0025508116481134176 0.012419130172801674 -0.04735284715186623 4.73657474291863 0.008185651071718484 12.47293133715747 -8.209225042792692 6.833526020994939 -0.022987300867806242 46.42708739641442 -0.007005054296912842 -4.3613229578655375 -14.73566124360369 -3.818115572507245 -0.0014987608833103776 -0.04019496064550179 -0.007803704836726642 -0.03806723867141076 -10.741183037994325 0.005579464051713156 
-0.020768177072582824 -0.013326896770620206 0.03176023415164075 -0.019459337141732425 -0.022605029339142352 0.008941383542889921 -4.1827946785918275 2.372412159130545 -0.6352851873237185 -0.8981512246108917 3.55378019117437 0.39245556758768924 -1.2071538634153482 -1.4295243653562606 -1.0757666129805996 -0.08693295119257621 0.30619961287167163 -0.8359304183489431 0.09658898608160564 10.865819714781594 -0.8028985171000331 -0.048226074334896944 -1.2678647516548562 -4.526697938651295 0.32605427452120067 -16.76732409476021 -0.34508725224796705 -2.2019637105740233 1.3121918068701057 -12.908469375650778 72.14093458648996 9.289262792989538 10.97343191714401 39.069492720653734 6.127881778708774 96.06271502969494 18.848270513052814 -0.2608288355176036 -4.083748166418115 4.55182498107372 -0.1586656019641994 -1.5645194305311974 -0.023143776344876514 -0.04817242108326404 -56.24421488159544 0.034611680065205735 0.04384473165613276 -56.259682624859096 -38.79212621597013 0.04915090979952408 -0.03453983920640061 0.012596478791507562 -0.010410382270143627 -0.0007970005760424299 0.021869594151500825 0.038265556603360784 0.038632560254894414 -36.64964343460505 -0.019908306936413572 -0.017038770573080248 -0.03181332859652235 0.013882465216236588 0.020362592937469334 -0.04073658758162621 0.043000630999946325 -0.011870136934065651 -19.73627073618602 -0.010057642499600773 0.04509972504409215 -0.020920020773267524 -0.04555980294351442 0.023404574283473367 -0.044755474958496314 0.04490755523382317 0.004787734735017467 24.02713266056757 -0.017003276837489104 -0.036701312143730555 28.893318804881375 -0.04808563406642479 -0.046788983600326975 28.845294227269605 0.012179050097051402 0.03711434199854139 3.0010613039577403 1.0210399108706034 11.374994402364274 -69.1790697796801 25.443411737742075 -8.481122459903002 -20.740537464246007 4.4317129329016405 -73.2027227174529 -13.487932857868392 0.23838719800930658 1.7310868625589935 -0.5166029098168241 0.06179797095101389 -8.125881128681499 0.038109777200441626 0.027075328449729222 44.58285833269769 -0.025710236475221776 0.006966575896408137 44.59283443042017 12.451400026317172 -0.02460027215313587 0.03139792660746252 -0.04825736781554699 0.04698681771024848 -0.03413488334313243 0.011262754281433543 -0.0032329605395840346 0.01723264152278505 11.14952329803808 -0.03169917149553299 0.015416688405745373 0.014859563192109121 -0.0023812182488132036 -0.009086046289506673 0.02412235879143513 0.00043727540960028245 0.018329582834910176 4.78676030775795 -0.019402294949351886 0.035841286586634026 -0.009665691110048343 -0.0358881961651371 -0.024247714836850807 -0.03261390755015679 -0.04415952641302044 -0.04235170862083506 -5.557779704437541 0.04665196291798909 -0.01070266108280178 -6.721380232031779 -0.044390831129764 0.026081219378207215 -6.700701840105603 -0.012496509780221186 0.048634070399182674 0.012695232969601811 -0.008386448397054729 0.029024342525421916 7.999592853330748 3.508435316996313 -19.250975129477684 -0.03001339391779778 10.396697267861075 0.04165450384049918 -5.664278361019069 -15.61709366483256 3.1833370306904576 0.04800270022415399 -0.030577863736878964 -0.0036314036826099725 0.0363701862196843 4.672291144263099 0.03393464701117157 12.443727332523466 -8.22387082178214 6.8862874359591695 0.0009320793906660295 46.35005469685661 0.011558682759687487 -4.370523949886305 -14.778810616965885 -3.862759763432973 0.02835800450166789 -0.026400090352138285 0.005826639743168574 -0.0048167935749195475 -10.753405509238158 -0.015292403136655886 
